#!OML:ASF F:\VICON\USERDATA\INSTALL\rory3\rory3.ASF
:FULLY-SPECIFIED
:DEGREES
71
root 0.352827 16.2907 -18.7745 0.830599 1.07964 3.93847
lowerback 11.5897 1.4524 -6.67357
upperback -4.40036 0.96795 0.925999
thorax -11.4998 0.995235 4.57878
lowerneck -9.47355 -6.86462 -3.99489
upperneck 19.3907 -9.40867 2.93594
head 7.87448 -4.50693 0.702808
rclavicle 5.31749e-015 7.95139e-015
rhumerus -41.6319 -2.88203 -80.8883
rradius 23.6857
rwrist 10.2258
rhand -7.39688 19.7182
rfingers 7.12502
rthumb 18.4891 -9.42308
lclavicle 5.31749e-015 7.95139e-015
lhumerus -41.2712 7.48815 82.3934
lradius 18.9141
lwrist -5.2674
lhand -4.22839 18.285
lfingers 7.12502
lthumb 21.5346 47.1078
rfemur 4.82261 3.67061 14.7125
rtibia 41.0171
rfoot 5.30979 -1.25012
rtoes -4.86744
lfemur -22.9427 -13.6355 -24.0775
ltibia 30.2149
lfoot -5.46827 5.91716
ltoes 22.6472
72
root 0.394623 16.3131 -18.6594 0.721783 0.833308 4.21181
lowerback 11.7172 1.49555 -6.91143
upperback -4.37114 0.978622 0.929394
thorax -11.5532 1.01908 4.71491
lowerneck -9.31062 -6.78888 -4.09109
upperneck 19.2309 -9.27579 2.88944
head 7.78984 -4.45928 0.725485
rclavicle -1.42876e-014 -1.59028e-015
rhumerus -42.0037 -2.7424 -80.7354
rradius 23.634
rwrist 10.1794
rhand -8.22936 21.1432
rfingers 7.12502
rthumb 17.6881 -8.07226
lclavicle -1.42876e-014 -1.59028e-015
lhumerus -41.1761 7.06379 82.8
lradius 19.0773
lwrist -5.25481
lhand -4.18767 17.8213
lfingers 7.12502
lthumb 21.5737 46.6396
rfemur 3.24247 3.556 14.0463
rtibia 43.6598
rfoot 7.26508 -1.264
rtoes -7.34538
lfemur -21.9298 -13.4873 -24.6805
ltibia 29.5994
lfoot -5.68444 6.03423
ltoes 21.7827
73
root 0.43343 16.3354 -18.5488 0.675082 0.499978 4.47566
lowerback 11.7241 1.53848 -7.1302
upperback -4.36155 0.998676 0.916033
thorax -11.5569 1.04403 4.82008
lowerneck -9.26395 -6.72695 -4.18356
upperneck 19.1668 -9.15996 2.8244
head 7.75734 -4.4182 0.733793
rclavicle 5.96354e-015 5.56597e-015
rhumerus -42.1304 -2.88795 -80.4636
rradius 23.542
rwrist 10.5139
rhand -8.06937 21.5423
rfingers 7.12502
rthumb 17.8421 -7.65918
lclavicle 5.96354e-015 5.56597e-015
lhumerus -41.0552 6.64493 83.1404
lradius 19.2342
lwrist -5.11016
lhand -4.1388 17.5954
lfingers 7.12502
lthumb 21.6207 46.4083
rfemur 1.50737 3.47054 13.3726
rtibia 46.2897
rfoot 9.49979 -1.33212
rtoes -8.60005
lfemur -21.0019 -13.4627 -25.2094
ltibia 28.9544
lfoot -5.99717 6.28625
ltoes 22.6144
74
root 0.473004 16.3504 -18.4395 0.660699 0.206242 4.69796
lowerback 11.553 1.61736 -7.23665
upperback -4.26361 1.09332 0.814325
thorax -11.3576 1.08186 4.74864
lowerneck -9.42793 -6.70996 -4.00395
upperneck 19.217 -9.14839 2.7513
head 7.79022 -4.40369 0.676192
rclavicle 7.37988e-015 -1.66979e-014
rhumerus -42.0615 -3.43556 -80.1777
rradius 23.3508
rwrist 10.8576
rhand -7.20078 20.6843
rfingers 7.12502
rthumb 18.6777 -8.43902
lclavicle 7.37988e-015 -1.66979e-014
lhumerus -40.8329 5.60543 83.737
lradius 19.7787
lwrist -4.36446
lhand -4.1051 17.7913
lfingers 7.12502
lthumb 21.653 46.6006
rfemur -0.289173 3.44902 12.7675
rtibia 48.9094
rfoot 11.701 -1.58787
rtoes -8.79584
lfemur -20.0952 -13.4187 -25.713
ltibia 28.2682
lfoot -6.17653 6.47429
ltoes 23.2263
75
root 0.513395 16.3645 -18.3248 0.654215 0.00020968 5.012
lowerback 11.3535 1.64516 -7.4616
upperback -4.21646 1.1045 0.737163
thorax -11.1926 1.0924 4.79036
lowerneck -9.34131 -6.7137 -4.00044
upperneck 19.1047 -9.15778 2.77643
head 7.739 -4.40817 0.687754
rclavicle 2.14687e-014 -2.38542e-015
rhumerus -42.2867 -3.30565 -80.2518
rradius 23.471
rwrist 10.4328
rhand -6.79273 19.4596
rfingers 7.12502
rthumb 19.0702 -9.62548
lclavicle 2.14687e-014 -2.38542e-015
lhumerus -40.7427 4.93815 84.2027
lradius 20.2359
lwrist -3.77826
lhand -4.25242 17.7319
lfingers 7.12502
lthumb 21.5115 46.5573
rfemur -2.07686 3.29489 12.0624
rtibia 51.5284
rfoot 14.0182 -1.76842
rtoes -7.15971
lfemur -19.1909 -13.3827 -26.3448
ltibia 27.6497
lfoot -6.46607 6.62306
ltoes 22.7983
